<?xml version="1.0" encoding="UTF-8" standalone="no"?>
<!DOCTYPE svg PUBLIC "-//W3C//DTD SVG 1.1//EN"
 "http://www.w3.org/Graphics/SVG/1.1/DTD/svg11.dtd">
<!-- Generated by graphviz version 2.44.1 (20200629.0846)
 -->
<!-- Title: dependencies Pages: 1 -->
<svg width="1166pt" height="284pt"
 viewBox="0.00 0.00 1166.00 284.00" xmlns="http://www.w3.org/2000/svg" xmlns:xlink="http://www.w3.org/1999/xlink">
<g id="graph0" class="graph" transform="scale(1 1) rotate(0) translate(4 280)">
<title>dependencies</title>
<polygon fill="white" stroke="transparent" points="-4,4 -4,-280 1162,-280 1162,4 -4,4"/>
<text text-anchor="start" x="558.01" y="-42.4" font-family="sans-serif" font-weight="bold" font-size="14.00">Legend</text>
<polygon fill="#ffffb3" stroke="transparent" points="345,-10 345,-30 365,-30 365,-10 345,-10"/>
<text text-anchor="start" x="368.63" y="-15.4" font-family="sans-serif" font-size="14.00"> &#160;Declarations</text>
<polygon fill="#8dd3c7" stroke="transparent" points="458,-10 458,-30 478,-30 478,-10 458,-10"/>
<text text-anchor="start" x="481.73" y="-15.4" font-family="sans-serif" font-size="14.00"> &#160;Module</text>
<polygon fill="#80b1d3" stroke="transparent" points="544,-10 544,-30 564,-30 564,-10 544,-10"/>
<text text-anchor="start" x="567.78" y="-15.4" font-family="sans-serif" font-size="14.00"> &#160;Bootstrap</text>
<polygon fill="#fdb462" stroke="transparent" points="641,-10 641,-30 661,-30 661,-10 641,-10"/>
<text text-anchor="start" x="664.67" y="-15.4" font-family="sans-serif" font-size="14.00"> &#160;Providers</text>
<polygon fill="#fb8072" stroke="transparent" points="737,-10 737,-30 757,-30 757,-10 737,-10"/>
<text text-anchor="start" x="760.73" y="-15.4" font-family="sans-serif" font-size="14.00"> &#160;Exports</text>
<g id="clust1" class="cluster">
<title>cluster_AppModule</title>
<polygon fill="none" stroke="black" stroke-dasharray="1,5" points="8,-70 8,-268 1150,-268 1150,-70 8,-70"/>
</g>
<g id="clust11" class="cluster">
<title>cluster_AppModule_providers</title>
<polygon fill="none" stroke="black" points="974,-78 974,-130 1142,-130 1142,-78 974,-78"/>
</g>
<g id="clust10" class="cluster">
<title>cluster_AppModule_bootstrap</title>
<polygon fill="none" stroke="black" points="529,-208 529,-260 653,-260 653,-208 529,-208"/>
</g>
<g id="clust2" class="cluster">
<title>cluster_AppModule_declarations</title>
<polygon fill="none" stroke="black" points="168,-78 168,-130 966,-130 966,-78 168,-78"/>
</g>
<g id="clust8" class="cluster">
<title>cluster_AppModule_imports</title>
<polygon fill="none" stroke="black" points="16,-78 16,-130 160,-130 160,-78 16,-78"/>
</g>
<!-- AppComponent -->
<g id="node1" class="node">
<title>AppComponent</title>
<polygon fill="#ffffb3" stroke="black" points="957.94,-122 852.06,-122 852.06,-86 957.94,-86 957.94,-122"/>
<text text-anchor="middle" x="905" y="-99.8" font-family="Times,serif" font-size="14.00">AppComponent</text>
</g>
<!-- AppModule -->
<g id="node6" class="node">
<title>AppModule</title>
<polygon fill="#8dd3c7" stroke="black" points="632.66,-187 629.66,-191 608.66,-191 605.66,-187 549.34,-187 549.34,-151 632.66,-151 632.66,-187"/>
<text text-anchor="middle" x="591" y="-164.8" font-family="Times,serif" font-size="14.00">AppModule</text>
</g>
<!-- AppComponent&#45;&gt;AppModule -->
<g id="edge1" class="edge">
<title>AppComponent&#45;&gt;AppModule</title>
<path fill="none" stroke="black" d="M905,-122.11C905,-141.34 905,-169 905,-169 905,-169 642.7,-169 642.7,-169"/>
<polygon fill="black" stroke="black" points="642.7,-165.5 632.7,-169 642.7,-172.5 642.7,-165.5"/>
</g>
<!-- MinipokedexComponent -->
<g id="node2" class="node">
<title>MinipokedexComponent</title>
<polygon fill="#ffffb3" stroke="black" points="833.99,-122 678.01,-122 678.01,-86 833.99,-86 833.99,-122"/>
<text text-anchor="middle" x="756" y="-99.8" font-family="Times,serif" font-size="14.00">MinipokedexComponent</text>
</g>
<!-- MinipokedexComponent&#45;&gt;AppModule -->
<g id="edge2" class="edge">
<title>MinipokedexComponent&#45;&gt;AppModule</title>
<path fill="none" stroke="black" d="M756,-122.03C756,-138.4 756,-160 756,-160 756,-160 643.06,-160 643.06,-160"/>
<polygon fill="black" stroke="black" points="643.06,-156.5 633.06,-160 643.06,-163.5 643.06,-156.5"/>
</g>
<!-- NotFoundComponent -->
<g id="node3" class="node">
<title>NotFoundComponent</title>
<polygon fill="#ffffb3" stroke="black" points="660.11,-122 521.89,-122 521.89,-86 660.11,-86 660.11,-122"/>
<text text-anchor="middle" x="591" y="-99.8" font-family="Times,serif" font-size="14.00">NotFoundComponent</text>
</g>
<!-- NotFoundComponent&#45;&gt;AppModule -->
<g id="edge3" class="edge">
<title>NotFoundComponent&#45;&gt;AppModule</title>
<path fill="none" stroke="black" d="M591,-122.11C591,-122.11 591,-140.99 591,-140.99"/>
<polygon fill="black" stroke="black" points="587.5,-140.99 591,-150.99 594.5,-140.99 587.5,-140.99"/>
</g>
<!-- PokeloaderComponent -->
<g id="node4" class="node">
<title>PokeloaderComponent</title>
<polygon fill="#ffffb3" stroke="black" points="504.31,-122 359.69,-122 359.69,-86 504.31,-86 504.31,-122"/>
<text text-anchor="middle" x="432" y="-99.8" font-family="Times,serif" font-size="14.00">PokeloaderComponent</text>
</g>
<!-- PokeloaderComponent&#45;&gt;AppModule -->
<g id="edge4" class="edge">
<title>PokeloaderComponent&#45;&gt;AppModule</title>
<path fill="none" stroke="black" d="M432,-122.03C432,-138.4 432,-160 432,-160 432,-160 539.22,-160 539.22,-160"/>
<polygon fill="black" stroke="black" points="539.22,-163.5 549.22,-160 539.22,-156.5 539.22,-163.5"/>
</g>
<!-- PokemonPanelComponent -->
<g id="node5" class="node">
<title>PokemonPanelComponent</title>
<polygon fill="#ffffb3" stroke="black" points="341.82,-122 176.18,-122 176.18,-86 341.82,-86 341.82,-122"/>
<text text-anchor="middle" x="259" y="-99.8" font-family="Times,serif" font-size="14.00">PokemonPanelComponent</text>
</g>
<!-- PokemonPanelComponent&#45;&gt;AppModule -->
<g id="edge5" class="edge">
<title>PokemonPanelComponent&#45;&gt;AppModule</title>
<path fill="none" stroke="black" d="M259,-122.11C259,-141.34 259,-169 259,-169 259,-169 539.29,-169 539.29,-169"/>
<polygon fill="black" stroke="black" points="539.29,-172.5 549.29,-169 539.29,-165.5 539.29,-172.5"/>
</g>
<!-- AppComponent  -->
<g id="node8" class="node">
<title>AppComponent </title>
<polygon fill="#80b1d3" stroke="black" points="645.44,-252 536.56,-252 536.56,-216 645.44,-216 645.44,-252"/>
<text text-anchor="middle" x="591" y="-229.8" font-family="Times,serif" font-size="14.00">AppComponent </text>
</g>
<!-- AppModule&#45;&gt;AppComponent  -->
<g id="edge7" class="edge">
<title>AppModule&#45;&gt;AppComponent </title>
<path fill="none" stroke="black" stroke-dasharray="1,5" d="M591,-187.11C591,-187.11 591,-205.99 591,-205.99"/>
<polygon fill="black" stroke="black" points="587.5,-205.99 591,-215.99 594.5,-205.99 587.5,-205.99"/>
</g>
<!-- AppRoutingModule -->
<g id="node7" class="node">
<title>AppRoutingModule</title>
<polygon fill="#8dd3c7" stroke="black" points="152.27,-122 149.27,-126 128.27,-126 125.27,-122 23.73,-122 23.73,-86 152.27,-86 152.27,-122"/>
<text text-anchor="middle" x="88" y="-99.8" font-family="Times,serif" font-size="14.00">AppRoutingModule</text>
</g>
<!-- AppRoutingModule&#45;&gt;AppModule -->
<g id="edge6" class="edge">
<title>AppRoutingModule&#45;&gt;AppModule</title>
<path fill="none" stroke="black" d="M88,-122.29C88,-144.21 88,-178 88,-178 88,-178 538.98,-178 538.98,-178"/>
<polygon fill="black" stroke="black" points="538.98,-181.5 548.98,-178 538.98,-174.5 538.98,-181.5"/>
</g>
<!-- PokemonService -->
<g id="node9" class="node">
<title>PokemonService</title>
<ellipse fill="#fdb462" stroke="black" cx="1058" cy="-104" rx="76.45" ry="18"/>
<text text-anchor="middle" x="1058" y="-99.8" font-family="Times,serif" font-size="14.00">PokemonService</text>
</g>
<!-- PokemonService&#45;&gt;AppModule -->
<g id="edge8" class="edge">
<title>PokemonService&#45;&gt;AppModule</title>
<path fill="none" stroke="black" d="M1058,-122.29C1058,-144.21 1058,-178 1058,-178 1058,-178 642.85,-178 642.85,-178"/>
<polygon fill="black" stroke="black" points="642.85,-174.5 632.85,-178 642.85,-181.5 642.85,-174.5"/>
</g>
</g>
</svg>
